<mxfile host="Electron" agent="Mozilla/5.0 (Macintosh; Intel Mac OS X 10_15_7) AppleWebKit/537.36 (KHTML, like Gecko) draw.io/26.1.1 Chrome/132.0.6834.210 Electron/34.3.3 Safari/537.36" version="26.1.1">
  <diagram name="Page-1" id="aaaa8250-4180-3840-79b5-4cada1eebb92">
    <mxGraphModel dx="1283" dy="-262" grid="1" gridSize="10" guides="1" tooltips="1" connect="1" arrows="1" fold="1" page="1" pageScale="1" pageWidth="850" pageHeight="1100" background="none" math="0" shadow="0">
      <root>
        <mxCell id="0" />
        <mxCell id="1" parent="0" />
        <mxCell id="rl443EiEk8wePTW852yB-18" value="" style="rounded=0;whiteSpace=wrap;html=1;fillColor=#f5f5f5;gradientColor=#b3b3b3;strokeColor=none;" vertex="1" parent="1">
          <mxGeometry y="1110" width="870" height="180" as="geometry" />
        </mxCell>
        <mxCell id="rl443EiEk8wePTW852yB-7" style="edgeStyle=orthogonalEdgeStyle;rounded=0;orthogonalLoop=1;jettySize=auto;html=1;strokeWidth=6;" edge="1" parent="1" source="rl443EiEk8wePTW852yB-13" target="rl443EiEk8wePTW852yB-12">
          <mxGeometry relative="1" as="geometry">
            <mxPoint x="360" y="1214.5" as="sourcePoint" />
            <mxPoint x="470" y="1214.5" as="targetPoint" />
          </mxGeometry>
        </mxCell>
        <mxCell id="rl443EiEk8wePTW852yB-6" style="edgeStyle=orthogonalEdgeStyle;rounded=0;orthogonalLoop=1;jettySize=auto;html=1;strokeWidth=6;" edge="1" parent="1" source="rl443EiEk8wePTW852yB-3" target="rl443EiEk8wePTW852yB-13">
          <mxGeometry relative="1" as="geometry">
            <mxPoint x="250" y="1214.5" as="targetPoint" />
          </mxGeometry>
        </mxCell>
        <mxCell id="rl443EiEk8wePTW852yB-3" value="Amazon GuardDuty" style="sketch=0;outlineConnect=0;fontColor=#232F3E;gradientColor=none;strokeColor=#ffffff;fillColor=#232F3E;dashed=0;verticalLabelPosition=middle;verticalAlign=bottom;align=center;html=1;whiteSpace=wrap;fontSize=14;fontStyle=1;spacing=3;shape=mxgraph.aws4.productIcon;prIcon=mxgraph.aws4.guardduty;" vertex="1" parent="1">
          <mxGeometry x="10" y="1120" width="120" height="155" as="geometry" />
        </mxCell>
        <mxCell id="rl443EiEk8wePTW852yB-5" value="Finding&lt;div&gt;events&lt;/div&gt;" style="text;html=1;align=center;verticalAlign=middle;resizable=0;points=[];autosize=1;strokeColor=none;fillColor=none;fontStyle=1" vertex="1" parent="1">
          <mxGeometry x="150" y="1150" width="60" height="40" as="geometry" />
        </mxCell>
        <mxCell id="rl443EiEk8wePTW852yB-9" value="IP address" style="text;html=1;align=center;verticalAlign=middle;resizable=0;points=[];autosize=1;strokeColor=none;fillColor=none;fontStyle=1" vertex="1" parent="1">
          <mxGeometry x="385" y="1160" width="80" height="30" as="geometry" />
        </mxCell>
        <mxCell id="rl443EiEk8wePTW852yB-12" value="Amazon S3" style="sketch=0;outlineConnect=0;fontColor=#232F3E;gradientColor=none;strokeColor=#ffffff;fillColor=#232F3E;dashed=0;verticalLabelPosition=middle;verticalAlign=bottom;align=center;html=1;whiteSpace=wrap;fontSize=14;fontStyle=1;spacing=3;shape=mxgraph.aws4.productIcon;prIcon=mxgraph.aws4.s3;" vertex="1" parent="1">
          <mxGeometry x="490" y="1120" width="120" height="155" as="geometry" />
        </mxCell>
        <mxCell id="rl443EiEk8wePTW852yB-13" value="AWS Lambda" style="sketch=0;outlineConnect=0;fontColor=#232F3E;gradientColor=none;strokeColor=#ffffff;fillColor=#232F3E;dashed=0;verticalLabelPosition=middle;verticalAlign=bottom;align=center;html=1;whiteSpace=wrap;fontSize=14;fontStyle=1;spacing=3;shape=mxgraph.aws4.productIcon;prIcon=mxgraph.aws4.lambda;" vertex="1" parent="1">
          <mxGeometry x="250" y="1120" width="120" height="155" as="geometry" />
        </mxCell>
        <mxCell id="rl443EiEk8wePTW852yB-14" value="" style="shape=image;verticalLabelPosition=bottom;labelBackgroundColor=default;verticalAlign=top;aspect=fixed;imageAspect=0;image=data:image/png,iVBORw0KGgoAAAANSUhEUgAAAgAAAAIACAYAAAD0eNT6AAAAAXNSR0IArs4c6QAAAERlWElmTU0AKgAAAAgAAYdpAAQAAAABAAAAGgAAAAAAA6ABAAMAAAABAAEAAKACAAQAAAABAAACAKADAAQAAAABAAACAAAAAAAL+LWFAABAAElEQVR4Ae2dTY4cR5K2q2oESJAA9UrcCRIgaaNLsLgR2X2KmQM0r0DWFTgH+OYUapEbFS8xG0qAhNlRq25AQmtDfmFZ6WRUVESGm/+auz8JkJEZ6eFu/lhk2OvmHlFnZ7wgAAEIQAACEIAABCAAAQhAAAIQgAAEIAABCEAAAhCAAAQgAAEIQAACEIAABCAAAQhAAAIQgAAEIAABCEAAAhCAAAQgAAEIQAACEIAABCAAAQhAAAIQgAAEIAABCEAAAhCAAAQgAAEIQAACEIAABCAAAQhAAAIQgAAEIAABCEAAAhCAAAQgAAEIQAACEIAABCAAAQhAAAIQgAAEIAABCEAAAhCAAAQgAAEIQAACEIAABCAAAQhAAAIQgAAEIAABCEAAAhCAAAQgAAEIQAACEIAABCAAAQhAAAIQgAAEIAABCEAAAhCAAAQgAAEIQAACEIAABCAAAQhAAAIQgAAEIAABCEAAAhCAAAQgAAEIQAACEIAABCAAAQhAAAIQgAAEIAABCEAAAhCAAAQgAAEIQAACEIAABCAAAQhAAAIQgAAEIAABCEAAAhCAAAQgAAEIQAACEIAABCAAAQhAAAIQgAAEIAABCEAAAhCAAAQgAAEIQAACEIAABCAAAQhAAAIQgAAEIAABCEAAAhCAAAQgAAEIQAACEIAABCAAAQhAAAIQgAAEIAABCEAAAhCAAAQgAAEIQAACEIAABCAAAQhAAAIQgAAEIAABCEAAAhCAAAQgAAEIQAACEIAABCAAAQhAAAIQgAAEIAABCEAAAhCAAAQgAAEIQAACEIAABCAAAQhAAAIQgAAEIAABCEAAAhCAAAQgAAEIQAACEIAABCAAAQhAAAIQgAAEIAABCEAAAhCAAAQgAAEIQAACEIAABCAAAQhAAAIQgAAEIAABCEAAAhCAAAQgAAEIQAACEIAABCAAAQhAAAIQgAAEIAABCEAAAhCAAAQgAAEIQAACEIAABCAAAQhAAAIQgAAEIAABCEAAAhCAAAQgAAEIQAACEIAABCAAAQhAAAIQgAAEIAABCEAAAhCAAAQgAAEIQAACEIAABCAAAQhAAAIQgAAEIAABCEAAAhCAAAQgAAEIQAACEIAABCAAAQi8J3D+/u0Y7x49enQpPX3z5s1he35+fl8+y+vt27eXhzf8BwEIQAACXRKYrvnX0rHpev/SdfDi4uL6hx9+OOx3+0bYDiEAJOhPzn4iDiXIj3Ba00cIQAACwQSuRhEE3QoAF/QJ+ME/Ag6EAAQgMDqBKwHw4sWLpz2C6E4AEPh7PE3pEwQgAIF6BGTaQKYMehMC3QgAAn+9HwctQwACEBiEQFcZgeYFAIF/kJ8d3YQABCBgh8BVD9mApgXAd99993Q6Hw6L++ycF1gCAQhAAAKDEGhaCPxHq056+PDhj5Pt/9mq/dgNAQhAAALNE7j86quvzn/++efrFnvSnACQlP8E/P+xur/F0w2bIQABCHRHoFkR0NQUgAT/6QE+MvLnBQEIQAACEDBDQO4UmP5dtfRAoWYEQO75/m/+/MPMiWTdkFcffuxtIly9UVEQAncI8Fu7gyTJDg1XbYPTQ4QetCICPtB2rkb548g/yWI/F5D++s/fDl355s/fa3Sp6Tb/8ZfPzr7/9DOvPghnGHuhohAE7hD4++ff3tm3tkOua49f/7L2FftOEHj14SdnP310M6DxvaadqO7w1TQ9LbHqeq+che+bEAAp0v7yAyEYWTjlsAECEICADQIyOHEDFIkPMriRV4wYkPVpskj9+fPnD2z0ctsK8wJAQE5At3uw883f/vXbIfDvFONrCEAAAhAYnIDLDDsxECoERATItLX1ZwVcWPa3ABSQITbepMR+JfiHwOMYCEAAAoMTEBHw3//3v2cyiAx8PTmuXQs8PP9hZgVAzKK/x69/PcyHudROfoy0AAEIQAACPRIQIRAjAmQNm1UuZgXABEy96M+N+gn8Vk837IIABCDQHoEYETBlsdWxrBQhkwIgJG3iVsES/EudOrQDAQhAYBwCIgIkuyyxRvOSaWyrWQCTAmCCq1JMLvhrnEJZCEAAAhCAgIaADDBFCGhfVrMA5gRAyOif+1+1pyPlIQABCEAghICIAMkEaF6SBQiJbZo2QsqaEwBTJ1Sjf60jQiBxDAQgAAEIQMAREBEQsDBQFdtcWzm3pgSAViGJA5jzz3l6UDcEIAABCKwRCFkYaG0tgCkBMEFWKaSQuZg1R7IPAhCAAAQgoCWgjUHW1gKYEQAho3+tsygPAQhAAAIQSElAMxVg7Y4AMwJA4xABrlVemvopCwEIQAACEPAhILFIe2ugT70lylgSAKr0fwk4tAEBCEAAAhDYI6AZkFqaBjAhALQLIzSw9xzH9xCAAAQgAIEYAprF6DINENNWymNNCIDpz/16A9HMt6QERV0QgAAEIACBLQKaaQDtoHerzdj9JgTA+fn5fd+OfP1v3WMYfeulHAQgAAEIQCCUgCYzbWUawIQA0KRENKmWUEdyHAQgAAEIQKB3AiYEgC9kTYrFt07KQQACEIAABGIJyOC0tRjVmAD4PdZHHA8BCEAAAhCoSkCT9c5paHUBYGUxRE7I1A0BCEAAAhCwRqC6ALAGBHsgAAEIQAACIQRaW6NWXQBobgHkDoCQU5JjIAABCEDAGgEL2e/qAsCaU7AHAhCAAAQgMAIBBMAIXqaPEIAABCAAgQUBBMACCB8hAAEIQAACIxBAAIzgZfoIAQhAAAIQWBBAACyA8BECEIAABCAwAgEEwAhepo8QgAAEIACBBQEEwAIIHyEAAQhAAAIjEEAAjOBl+ggBCEAAAhBYEEAALIDwEQIQgAAEIDACAQTACF6mjxCAAAQgAIEFgQ8Wn/kIAQgMQODVh5/c6eVPH318tva47daeb36nY+yAAARWCSAAVrGwEwLtEHDBXAK4vNzneQ9efXjz3Xzf6vtPV/fe2bn8u+dOJIiAcO/vHMQOCEDAFAEEgCl3YAwEtgm4wC6B3r33Duzb1QZ9s2z33eeZgHAiwQkCxEEQag6CQDYCCIBsaKkYAmEEXHC3EOjDenBzlBMFbnu2EAdOGPz1n7/FNMOxEIBAIAEEQCA4DoNAKgIu4P/jL59NI3vPVH2qxivVI/10ff3+088OVvztXzdCAEFQySk0OxwBBMBwLqfDFghI0JeALy8XCC3YVdMGJwTcFkFQ0xu0PQIBBMAIXqaP1QmMOMqPhe6EgNsiCGKJcjwEbhNAANzmwScIJCFAwE+C8VYlTgjIFjFwCw0fIBBEAAEQhI2DILBOwKX2Seuv80m1FzGQiiT1jEwAATCy9+l7EgIS9N2KfQJ/EqSqSpZigNsNVfgoPDABBMDAzqfrcQQY7cfxy3H0QQwcbzeUaQLuKMhBmTp7IYAA6MWT9KMIgRaD/vn5+fUSztu3b1+6fRcXF3e+f/PmzaX73m2neu6797Kd6ricf7b2XsSA/JMHEskzBxAD1jyEPbUJIABqe4D2myBgNfC74D5trxzIH3744dq9j9iq63j06NGlEw4iFqwIBJmWkX8iBsgKRJwRHNodAQRAdy6lQ6kIWAr6LtDLyN2N2BMF+lS4zo72XC8rtCQMXFYAIbD0Ep9HJIAAGNHr9HmXgDykR4JFjZcL9m5Uby3Qa5n4CIOpzifaemPKIwRi6HFsLwQQAL14kn4kIVAj8M8DfuvBXuOEhTB4+t133z09Hl9MDCAENB6jbG8EEAC9eZT+BBEoHfgl6Pcywg8CvnLQixcvnh53H7YlBQFCYMUh7OqeAAKgexfTwVMEZJ7/2b0vThVJ9p0L+iON8mPgzQVBKTGAEIjxGMe2RgAB0JrHsDcJgVIL/Aj6Sdx1NhcDUuNREGSbKkAIpPEbtdgmgACw7R+sS0ygROAn6Cd22kp1R0GQfd0AQmAFPru6IYAA6MaVdOQUgdyBn6B/in6+7+aZgZxZAREC8uJhQvl8Sc3lCSAAyjOnxcIEci7wI/AXduaJ5nJnBcgGnIDPV00SQAA06TaM9iGQc9RP4PfxQJ0yubMCCIE6fqXV9AQQAOmZUqMBAhlH/VfyJD5W8htwsocJObMCTAt4OIAipgkgAEy7B+O0BHKM+hnta71gr7zLCkzrBJxxSe4gIBvgcLJtkQACoEWvYfMqgdSjfgL/Kuamdy6EQBIRIEDIBjR9WgxrPAJgWNf30/HUo34Cfz/nxlZPFlMDSYQA2YAt2uy3SgABYNUz2OVFIPWof2r06vnz50+9GqdQ8wRyCQEBwy2DzZ8e3XcAAdC9i/vsYI5R/xT4H/RJi17tEUgtBCQbIOfo49e/7DXN9xCoRuCiWss0DIFAAjLql+f3v/rw48Aa3h8m6f5pVf8Dgv97JiO/EyEw/TufGFzFcpDz8++ff3sm5ysvCFgkgACw6BVs2iSQOOUv6f4H3NK3iXvYL0QIiDCcAEQLAckGIAKGPZVMd5wpANPuwbg5gWf3vkw26mfEPyfL+zUCR2F4fbx1MGqhoJsSkHUB3/z5+1pz7INAcQJkAIojp0EtAZlLTRH8SfdryVNeCLhpATl/YojIlIBMXZENiKHIsSkJIABS0qSu5ARugn+S+X7S/cm9M1aFx6wRUwJjub3r3jIF0LV72+5civl+GbWR7m/7PLBkvWQDHj16dP3mzZsfY+ySKQF5catgDEWOjSWAAIglyPFZCKQI/pNh3d7T//Dhw0MAevv27eXRAVcSnI7v2WQkcFwbcB7754cRARmdRNVeBJgC8MJEoZIEZL7fXRxD25UV3L0GRAn+EvhnwV8wPZkC0ttjUArFxnEKAsfzK2pKQM5zOd95QaAGAQRADeq0uUogxWI/t9Cv11v7XPBfBXizU4TA0xPf81VCAiICpn/nU5XBQuBmceCXCa2iKgj4EUAA+HGiVGYCiRb7db3Qb5p7Xo76t7zyRISClN8qwP60BGKzAU4EyO+AFwRKEUAAlCJNO5sEXPDfLOD3Rfdz4NPCs0s/FGdnMj0gC9XIBvgSiy8nIkCmnkJvF3S3CSIC4n1BDX4EEAB+nCiViUBs8Hcp/+MILJOVNqqd+no/wBKmBAKghR4iU09y10moCJB2bx5zTSYg1Acc508AAeDPipKJCaQI/nKx7XW+PyFuREBCmD5VxT4zgAcG+VCmTCwBBEAsQY4PIhAb/KdGD/P9QY2PedBhXcCYXa/T69h1AbF3wtTpNa22RAAB0JK3OrE1Nvj3fItfThfLugAWB+YkfLfuWBFwt0b2QCAdAQRAOpbU5EEgRfAfNeW/uO/fg/bdIm5xIHcI3GWTaw8iIBdZ6o0lgACIJcjx3gQI/t6oshfkDoHsiG81ICLg+OeFb+3nAwRqEkAA1KQ/UNsEf5POZnFgQbdI5irmNsGCptLUIAQQAIM4umY3Y4K/3E41jZ7OR037F/AbIqAAZNeEnMextwm6uthCIJYAAiCWIMfvEgj9++cS/I+3U+22QYEoAoiAKHz6g2NvE9S3yBEQuEsAAXCXCXsSEpDgL084074I/lpi0eURAdEIdRXIuoCYBwbpWqM0BO4SQADcZcKehAQI/glh5q+KZwXkZ3yrBaYDbuHgQ2ECCIDCwGnuNAFG/ut8NLftffPnH+uVeOx1zwrwKEqRRAQQAYlAUo2aAAJAjYwDchEg+G+T1fwhoL/+87ezx69/3a5s5xtEwA6gDF9P537wnxPOYA5VDkIAATCIo613k+Cf1kPf/Pn72X//3/+ehWYDEAFp/bFXm7tFcK8c30MgJQEEQEqa1BVEgOAfhG3zIAn+7vX49S9RImD6c8JvNdMPrl22egIxIkDW2sjttrwgoCGAANDQomwWAtzqt491Ekkhfwr4ULGIgL/967f9RjZKyFMDEQEbcBLvjhEBobfbJu4C1TVEAAHQkLN6NJXHo/p5VVLyPiW3Uv6yLgAR4EOwfhkRAZMV6jUBkgVABNT3X0sWIABa8lZ/tl4dL3b99axSj+bp/6UJiIAlEbufQ/+AkPwJYaYC7PrVmmUIAGseGceeq+NFbpweB/Y0ZfodERDohAqHhYoAsgAVnNVokwiARh3Xstmy6I/g7+9BzS2APrUiAnwo2SgTIgJkKuDZvS9tdAArTBNAAJh2T5/Gsegvn1+//rffQ4AQAfl8kLpmEQEimjX1sh5AQ2vcsgiAcX1fq+fqxU21DLXSruYOgFNrAJb9QQQsidj9PJ0D6t8N6wHs+tOKZQgAK54Yww7m/QP8HHsHwKkmRQTEPDWQWwRP0U33XeidAawHSOeDHmtCAPToVZt9IvgH+EWzAFAz+p+bIschAuZEbL5nKsCmX1q2CgHQsvcq2C4jCkktal4s+tPQul029QLA27W//xQrAqYsxZP3tfEuF4GQPxzEVEAub7RfLwKgfR8W7YE2+ItxLPoLd5Fm/l/S+TGvGBHA3w6IIa87NmQ9wLN7X+gaofQQBBAAQ7g5TScD5xPVi5fSWNtHLb7z/6l6iwhIRTJfPawHyMd2tJoRAKN5PKK/AaN/5v0jeE9/iOep7+Exj/ldtoEIWBKx9zlkPQBTAfb8WNsiBEBtDzTSvnb0z7x/I47dMDNWBGjEy4YJ7N4hEDK1pv0d75jA140TQAA07sAS5gcu/CP1H+8c74V1vg8A0pgUIwKmdp4gAjS0w8pq/5gWfzY4jHOvRyEAevVswn6FpP75Iz9xDtDc/ictSbDO8UIE5KCars6Q9QBkAdLxb70mBEDrHsxsf8jF4vj88syW9V295va/lPP/a1QRAWtU7OzTrgfgMcF2fFfbEgRAbQ8Ybz9k9G+8S02Yp7n9L0f6fwlJRECE0HiizWgs2+fzaQLaWwNZEHia5yjfIgBG8XRAPwNG/6z6D+C8PETmzjW3/+VK/y/tivnbATwyeEkz7WeZCpCFt5paA37fmuop2wABBEADTqpholwctKN/Uv/lPRUxKg8yFhEQhK3IQdosAAsCi7jFdCMIANPuqWecNvhPlrLqP527qq7+3+tGjAjgkcF7dMO/Z0FgOLtRj/ygpY7/9NHHLZnbrK0BnEn9J/K29ta5Uun/ZffcY4e1QtE9MjjkHvalDXy+S0CycNM55C0g3YLAEutI7lrLntoEmhIAh4vNp7WR0T4EshLwvniXTv8vex0jAkToMGW0JJrmszwbQNZc+NbGddWXVH/lmALoz6ele8ToPxFx7eg/UbNR1YgI+ObPP0Lq4EFBIdQ8jglZEOhRLUU6JIAA6NCpJbvEKK4k7dttuRH47b3lPz1+/UuwCOD2wDz+0i4IzGMFtVongACw7iHb9rHwL61/mkn/L7sdKka4PXBJMs1nsgBpOPZeCwKgdw9n7B+j/3Rwten/0ICbzuLbNcU8LZA7A26zTPWJLEAqkv3WgwDo17e5e8boPy3hZkf/DkOoCHB3Brh62KYhEHJbYJqWqaUVAgiAVjxlzE5G/+kc0vrof05CREDI3QkiArQc5u3yfp0Av9N1Luy9IYAA4EwIIcDoP4Ta9jHNj/7nXZPpiRARMNXB3wyYg0z3nt9rOpZd1YQA6MqdZTrDqCId515HvSICQm4PZFFgunPL1cTv1ZFguySAAFgS4fMeAUYTe4R033uP/qVaa4v/TnU19PZAFgWeohr2nfYPBYW1wlGtEWjqSYAyoqj16NPWHOtr76sPPzmTx4H6vhhN+JLaL6cd/Qem1fcNyVhCBMure1+oWnDrATjXVNhOFpY7AoTryUKLL1s83xZdKP5Rez0tbuCiwaYEwE1a8fdFF/gYQ+D7zz/THM7oX0Nrv2y3o3/XdXdnwDOlCJiOlycFniECHMm4rdwR8PDhw2uNCGgp2xRHJ+HRfzlTDagSthxUFVMAQdj6OIi/B17PjyOM/h3d0DsDpuNZFOggJthqnwsgo1lefRNAAPTt35O90/7AGY2dxKn9svvR/xyIjCZDUsqaP2ozb4/3dwlonw7IAOEuw972IAB686hnfwLmqkj/e7LdKzbS6H/O4mYKT/+Hg6bU9Y/zengfTkCTBZC1QdpBQrhlHFmDAAKgBnUDbf70kf/CPzGX0X9Spw01+p+TC5lXdosC5/XwPozA8emA3gdrrxPeFVPQBAEEgAk3lDfi8DfA/Ztl9O/P6mTJUUf/DopbFOg+K7asB1DAOlVUc0sgGYBTJNv/DgHQvg/VPdDO7TH6VyNePeAY/Icd/TsooYsCp0yAip1rj+1tAkwD3OYx8icEwMje9+s7o38/Tj6lVAEsZNGcjxEWyoSsB2AqII3nWAyYhmMPtSAAevCisg/K9L+ydoqvEQhJ/YfMl6+1bXWfPCkw4MVUQAC05SHaLMDyeD73QQAB0IcfvXtB+t8bVeqCqtF/6sat1vf49a9q07g1UI3szgHaLABrAe4g7GIHAqALN2brBOn/BGgZ/W9DDF0PwK2B20x9v5mmVF76ltUOHHzrpVxdAgiAuvyLt65J/7P4L949LPzbZ8h6gH1GOUpcXFxc+9ar+XshvnVSrj4BBEB9HxSzQKPiNbcKFetAmw2pUv89L/w75b7A9Q6sBzgFdec7pgF2AA3wNQJgACe7Lmrm8TTpQVc/29sEtKl/+WuXgYHwdsMNfgp9PgC3BpZztmYAUc4qWoohgACIodfYsZo0niY92BiGIuaGpP4lCI78ClkPwK2BcWcMdwPE8Wv9aARA6x70tF+r3rWPDPU0Y6Ri6tT/qKP/+UkRsh5gOp6pgDlExXvt71yTRVSYQdFKBBAAlcAbb5bV/xEO0qb+pSmC/3vgISyYCnjPT/tOs96Hvw2gpWu7PALAtn+SWYdyT4byZEUhqf9RF/5tgWQqYItMnv26aYBP8hhBrVUIIACqYC/fqGb+n9v/ovxD6j8K383BoVMBCZqmihMENNeRE9XwlRECCAAjjshphmb+X5MOzGlzi3X3lPqXjJH7V8sXIVMBPCBI7y1uB9Qz6+WID3rpCP1IQ4Db/8I49pL6F7F4E/g/vgVCpilCAvKtSpQf3FSA5uFVclfAo0ePLrWL25SmdVf8+Lu/9OmYrAMY/Y4VH04tlCED0IKXIm3UzP9z+18w7OZT/xL8JdiupXllvyaTFExxcWDIVAALAhcQPT5qfvea64lH0xSpSAABUBF+qabXLuhbbTNy2iKzvT8k9f/1v//YrrDSN3sj7ZoiQINEsgAhPtG00VtZze9ecz3pjVNv/UEA9ObRRX+UozZu/1vw2/sYmvq3lkL1PU9EBDy79+UelqTfu6kAZaU8G0AJTLP+hyyAEq7R4ggAo47BrGYIqFL/PTzuV0aApUUAUwH5fw+a2wF9BWN+q2khhgACIIZeA8fupXXnXeD2vzmN/fchaebSC+n2e3FTQjuiqyUCfPsj5dyCQM0xI5fVTAOMzKmnviMAevImfSlGoJfUvwMWMiVRWgSIjZJB0bxYEKih5V+WdQD+rCyXRABY9k6kbZpRnWb+L9KsXg7vKvUfuiixtAh4/PoX1fnDgkAVrjPNdUBzfdFZQelSBBAApUhXaEfz3O7pQvmygolNNhmS+tcGrtJgQjIAzsbyIuBX17TvViXWfCulHARaJ4AAaN2D2F+UQGjqv6iRgY1p0+vzZkqKgJCpAJ4QOPfW9nvNQkDNAGO7Rb6pSQABUJN+5rY1KTrNg0Aym229etVossYT9GoBLCkCtIspWRCY/qzQXF/St06NKQggAFJQNFqHXJB9X6wA3icVMorUBqp9K/KVSGFrKREQkgVgQeD+ucN1YJ9RTyUQAD15M7AvmoU/gU00f5ik/mUUqenIqH/mV0RAifvEtYKFLIDf2et7PdAMMPxaplRpAgiA0sQLtadJz00XRhYAnvCL/HGZ6evuU/8xCwGX+Eo8Nljs1YossgBLT8V91lxn4lri6BwEEAA5qFJnVwRCgoZ2dGoFWMxCwGUfSogA4ayxmSzA0kt3PzMguMuk1z0IgE49ywrdNI4dLfWfMgsgHiglAjTeDhF0mvpbL8uC4NY96G8/AsCfVbcl+cGvu3aU1P+896EPBJrXsXwvIiBnqli7IJAswNJD4Z8ZaISzs3AkAsCCFzLYoLngsvJ33QEhI8VWU//rBNLtfXbvi6wiQMs9xLfpaNiuSXM90FxnbPd6TOsQAJ363XeFru+K304xbXZrtNS/A5F6CsDVK9ucdwaQBZiTjn/PdSGeYQs1IABa8FJGG6eREHcALPiOmPqfI9Asqpsft/c+9zMCyALseSD9974DjfQtU2MKAgiAFBSN1UFaLs4hIelhbfCJs7DdoyVg5MoEkAVId15oBgZcb9JxL10TAqA0cdozTWDU1P/cKZppgJBUcc47A7RCLETszVnxHgItE0AAtOw9bM9BoPsH/uxBC7gT4GqvzuX3ue4MIAuwJM1nCGwTQABss2n2G27NCXOdjP61R2pHnNr6Wyj/4sWLpyGZgFxTAVqfkAVo4SzDxhwEEAA5qDZUJ88AuHHWMfirR/8NudrbVM0UgKv0+fPnD7QiINd6ALIAzivhW64L4exaOhIB0JK3sDUnAXXw1440cxqfum7fOwGm0fOla3sSAEFTATkyAVrfkAVwXtRvyTjqmVk5AgFgxRPYUY0Aqf849MfbJs/kATLTyPGBtrYc6wFCsgBauykPgdYJIABa9yD2pyCgHv2naNRyHSHTANKf41Pk1JkAC1kAJ2Qs+wXbIJCSAAIgJc0G69I89rPB7u2arB39y5+f1aaXd40wWEBzJ8CbN28u512QRYHTZ5UIyLEeICALoBKC8z7zHgItEkAAtOi1HZt5MMcOoOPXIQv/Rgj+fvROlwq5MyDHVIDGX7KegSzAjV81AwOuN6d/C5a/RQBY9g625SagGvHJ6J/XXQLT4r/7d/eenYUsCkz9R4O0UxksBlzzJPt6JYAA6NWz9OskAVL/J/GcaQPnWm1W1gP43tEgfSALsOZJ9vVKAAHQq2fp1x4B1ehfMye+1/BI34euB0iZVtZMA4hvyAKMdIaO3VcEwMD+1z64pRdUIaP/FCPi1vj5jpxl1HyqbyHrAVLeFaBdDHiqLyN9N+r1YSQfIwA69DZ/onPXqarRv3YEudv6gAW06wFS3xWg8SHTAAOeoIN2GQEwqONH7XbI6H9UVpqsx97q+ZD1ACnvCtBmAZgG8D/rGXD4s7JWEgFgzSMJ7PFN3SZoqsUqGP1X8lrtqQBtFqASpuaa5XrTnMveGYwAeIeCN70TYPSv87Bm4ePyYUBbLYVMBaRcELhl19r+vazG2jE97dtb29FTX0ftCwJgVM9P/R7wB+49+h/liX+lT/+QqYBUCwKZBijtbdqzTgABYN1D2JeEgHb0n6TRwEpkxCtB79m9Lw/bwGrMHqadCki5IJBpALOnBYZVIIAAqACdJqsQMD/6l8AvQV+ehnezAO7jw/bvn3/bnRDQTgWkWhCoWdgoZ+no0wA+v1QtU586KVOGAAKgDGdaqUigldH/zWNwP14lJQEwVSp8tYGVnZoL+xTQ769UsblLpgKmY643C6x8kar/mkVro94NgPBZOQE73IUA6NCpmgv3ID9086N/n+BWQwTk/Hk8f/78gab+VLebMQ2goU7ZngkgAHr2Ln07a2X0L8Hd59WbCJj6rPqzwT5CaY+jRiBLXYOI5D1sfN8hAQRAh06lS2EEaq38197mJiJAe0wYkfxHaRcE+gqlPcuZBtgjxPcjEEAAjODlsfvonf6vhemnj9bn/U/Zk2IkfKp+951voIy5pVS7IDCF+GEawHl4fev7XIf1o9nbCgEEQCueUtipeYCLotrmimrT/5qgUBuGzIenCIS1+yHtaxcEphA/TAOk8zzXm3QsS9eEAChN3Fh7nSt979G/pP9rvUIDeYpAWKvPy3Y1WYBU4sc3uyG2jno3wNJPfO6LAAKgL3/SmyMB7cKtmqP/0NXtqQKhhZOmRhagps8tMMcGCCAAOAe6JKDJbNQc/cfCJwsQTlAzDSBrHLSiMtwyjoRAGQIIgDKci7aiubBpH+BStCNxjXmn/+OaiTs6NP3vWiUL4EiEbTXTAGEttHmU5rqgud60SaNfqxEA/fp22J5pR2o1U8EhdwAsHTtyFmDJQvtZE7xYB6ClS3nrBBAA1j0UaJ/vyCbm9q1A07If1lL6P8V97b1lATQnSGwGhRXs67R9rwu+15n1VthbmwACoLYHDLSvHTEbMPmkCZr05cmKMn8ZG7zm5nWWBbie9+3U+9h+SwbAN4j5BsVT9rbwneZ6oMmgtND30WxEAHTq8ZF/mJoLdevpf3f6ht5J4I63tNXeEljSdk1wLGlXyrY0GbSU7VJXeQIIgPLMi7SoSW329IPXPPyn9ur/FOn/+cmUMqMwr7f0e+0tgb30uzTnFO1prjMp2qOOtAQQAGl5NllbKynzJuFuGJ0jaMWmwzdMrbJbkwWI7bcmC9STWN5yrOZ6MHKmcYtfS/sRAC15S2HrqD9MzcVLc+FXoPcqmmL1/7KhURcDlpz+0JxfS/+08lkzhdZKn7BznQACYJ1LF3tHXNzke/HyZZPrREid/nd2xo6GXT0WtlOwvfa1I0dGxbftUcvV/g2Nyj1lvxEAKWk2XFcPi5s0faiZIdEG6YuLiwfWTy1NsPbty1TnlW9ZLdN5vZpzwVdgzutv6X0rv6GWmFq2FQFg2TuRtmkubJFNmTi8lflZ5ej/ShbF+QJOPQ1QMr3u28e1crF2Mpq9odrKb2jtHGCfngACQM+smSM0K3RH++HXmv8PHalqRtihbVg7sa3eDaAZJVtjij0QmBNAAMxpDPx+CjD3O+i++ef/a0f/L168eCp+0aTDO/BjUBdiFlaOli3bAqy5DmgGGFvtsb8uAQRAXf5ZW+eito631v3/MSNzzWg49TTAOsXbe6e58Ze396T5pBE+MQsBNcGs52yZZo0D15c053jNWhAANekXaNt3blPzwy9gdpdNKEf/Z270HwIjRmy49mICqqsjdqtZ/xDbFsf7E/C9rvjXSMkaBBAANagbbbPluU3rtgcE5Dsr4DWjYaOnWJBZU7+vfQ6MXQjo00bPZTRP0WT038eZgADow4+bvdAsdpuyAObn0Lc6qknLatK9W+1p9kvwTzH614yGU0wDxMypa/jsldVML1jIWuz1h+8hYIUAAsCKJzLZgVLPBFZRrTb4T1XfGf275nxHw658qe30rILrXG1p6i4hWiYf9LBgds1d3gMAzcBirSH22SCAALDhh6xW+M7XyToA66n0FKBKiqKA1P/JuX/NNEBI26F8NdmJ0DZ8jgvNAJQ8J3z6UbqM5nfvez0p3Qfa0xNAAOiZcQQEvAmkHP1Lo5pAGzsnHhpMveF4FtT02bNKii0IaKbQRhdLC3RNf0QANO0+P+M16bpW1wFYTMsGjMCvfFb+a6YBYoJ4rIDwOzv9Svn22ZLNfj2zUcri78cGmb6tQAD07d9D7zSKXaYBBkBSpIsBo38vu6aL9eYagWUFASJkWcXuZ9/gvFsRBaoR0PzuNQOKah2iYS8CCAAvTO0X0szbaeYDWyOj4RDTt4DA6zX6j7FJc6wmczAFjywPAZrbq2lDY/u8jVHf627/+2NUTF32GwHQpVvjOjVdbL1XA8e11O/R2tG/T+rf0ZI5cd9Rd+jtgCVW07v++Gw1dwL41LdWppQ4XGu7lX2abGIrfRrZTgTAIN7XpO006cBB8Km6GTL6VzUwFdaMiLV1j1p+4PUD3oK/9DM0Rj0XS/UbAVCKdOV2tMq952mA3K7IOfp3tmtGxAGC5EyTRtdkL5z9bG0Q0KT/xWLtdcRGL7FiiwACYItMh/s1KU6mAcJOgIBg672gb26R5ta4kJFtyDFz+2q+tzZ9UZNFyrY114+U7VJXPgIIgHxszdWsmQYwZ3wig3IHthKjf4fCdx2AlNeM6DVlp6qDBIzrg5Wtps+dTb94p/8Z/Vs5W9PZgQBIx7KrmmQdQEvTABYuyqVG/+5Ey3U7oMURtCbj4fiwTUuAAURanhZqQwBY8EIhG0TBk8bLB7vk6D9fL3TZAs1ahJw2z+vWjObnx432XjP//7d//TYaniH6iwAYws3vO6lR8awDeM9t713p0b/Yo70dcK8P7nvNNEkvI3OLWQ/nj4xb7/R/RhuouiIBBEBF+DWa1szjtTQNoBmJWhgh1lg579NvnzLuvNWsQXDHlNhqzvEQezTnWkj9JY7RjP7FHs3AoYT9tJGGAAIgDcematFMA5AF8HOtMv2fbOFc6nUAmpGwhXUXft6hVAwB0v8x9GwfiwCw7Z8s1mnUfEtZgCywPCrVpv9Tjv5Tp+CVQsaDThtFNJmP1MwrESL9Xwm8pWYRAJa8UcgWbYq0tyyAZpTr4xJN8JjqSzb6d7b5puJlbv+UrTWFjOvL1jb3HSmadQ9bNrayn/R/K57KbycCID9jky0opwEuTXZiZpRmVHYqCM6q9H6rCR49zB8fwSQXMt7AExfUnA++Yiuxiamr8x79k/5Pjd5WfQgAW/4oZo1mGkCMyj0CS9Fx34uzJmDv2aUdNWuEyl7b7vtU6wBGTf9rMkKtr3tg9O9+NWyFAAJg0PNA+0yA3qYBNKO+hKdIllFzClGhFTIp1zH48H3z5s2lTzkpwx+sOUnKe/SvyRKebJEvzRJAAJh1TX7DNFmAFhYDakbCqehqhETO9L8m+6GxeYNTFiGz0Vb23RoepYVPys5rR//atUIpbaWuMgQQAGU4d9FKT1kA7Yh3y4Ga6YQUI/UtO2JS0xIAraf/J4Fzf6vvy/3awKXx4bKtnj9rBgg9c+i5bx+01DmZq9PM17XUtxZsdVmAnIEshoPYNY1yYqrIdqzvCD3UAMkuTGlyr/SuiJ9vXv/+rintb6rlUfC7Th/faEb/0yGtZz68zg9BI+n/VCL5iHqIjfJ8qs6kKQFgfZRS3ZsFDDjOxV4XaCqoCQm0IlT2Dk4x6tP82GNG6Ht9ke814mfe94DRf5Ug6ONT4aCdt9aKH2mjxZc2/S/nyPw8abHP2LxPgCmAfUaUuE3AexRx+zB7nzQBfM16a8FDk2Vwfdf2Iec6hjXGsk9zB4o2/a8ZVNTo+xaTgP3d/G4D+s4hGwQQABtg2L1NQHNB3q4lzzdTEPQeoZZMcZYIHposg/Rd/mkC4OSxqxrTP5o7ADRnldb/Nfqu6c9WWe3of6se9vdHAAHQn0+z92gKNF2MJm7SnJ9k51WqAa3IUAb/Ut24084k6u7f2bmxI+MtgN7CcsO0mru7+L3WBNhr2wiAXj2bsV8yH2t1VCGjNE0qXJsCz4g1umrNCDVgfveq1uI/3/l/AaiZAmhFAMWcGFZ/pzF94th0BBAA6ViOVpPZUYVmGsDNhffiPI34aaHPmgCmWQCoTf/XEj8JfGT2d5qgb01XkWtqSwMFAaChRdlbBDQX51sHZv6gHQn3JAI04kfhhmqjf4WNOUf/Tab/rf4+NT6lbF4CCIC8fHuv/YnVBYGakbB2NGjZqRrx49uPmqPfyY/e8/++/dH6W7u2wteOnOWOwZ/Rf07IHdSNAOjAiTW7YHVBoGYkHDAffkCeccFZrEtTjlhT1qXul2b+P9eT63KIKjUIDoBABgIIgAxQR6pSLtAWswBy0dZkAZ7d+zKr20rO96UcsaesSwtYk8L2nf+X0b9y8V9VAaRlJuUZ/YdQG/OYpp4EKH+b2vCoq5szSFbGay6SxyzAtTUAk10vJ5sufexytwRqVpH71FurzJS2fjCJjh9j2pc6Yo4veWwuv9UUQBH8VKl/rqsRpBeHaq+di8OLf2xKAEjwz/VDL07ecIPCWBbG+abGXRbAWqpU5m6nIOh9MZTR4fwZ+SldlGMu+5R94ospMxMjAqo89GfRJ2/f+QwMBhr9LzCe/phr6uR0qx1/+2k7fWMKoB1fFbVUe1GIHW3m6Jx2GsBlAXLYUqNO6f80gj2f2vZOY8u0iYz8a498Nel/YeszMNBktWr4K1Gb3qJJ2pPRP69xCSAAxvX9yZ7LBdV3XtVVpL1ou+NybjWLAcUOzQpxn6Dj+iZZEve+9PYYzEUEbAoBF/ifP3/+wEgmxzuQ+QQxjV+P/mni1sf5uaT9/Qk3rdCft8f79gkgANr3YbYeBFwczN0WGJIF0AQLjUiquVhSRMDx37mM8Of/pv3nhgK/W8TmfV77pP97H/2HLPwL+H17+4SCbRBoag1AG0j7sVJGuDJK0Fw8LS4IlCyAZgQu/e15vYmREX6SH4oIsL1MjEbQHY1qbvSvhemTNdHWSfn2CJABaM9nRS2WUYJmlCuBVpuKzN2hY8DbTH+vte8bNPaCz7zuozia7+L9OgHv9P8ef/GjRsCKOccpk3XLDO5l9G/QKY2YhABoxFE1zQxIFZqbCpCLusxz+3KUBYE+IsAn/ezbJuXe3cPujeLUuSl3smiD/9SwSih6G5qpYEjwZ/SfyRkNVosAaNBppU2WUZYmCyD2WRztahcESvDYEwF7I9C5ryQ7UnMdwNwWw++9R/97gezZvS/U3Wxt9D910JuXwBBmp0STGhgHNE0AAdC0+8oZr71oWJ0K0GQBhK6IgL0/FqQRRxaFUbmz6HRL2qmjU+fknnDbsKTF0f9GV9Z3k7Fa5zLqXgTAqJ5X9ltGunsjrpUqzU0FaLMA0qe9YKLJAqwwYtd7At6j2VPnovgrJPXf0ug/NPXPufr+ZOPd2RkCgLPAm4CMuDSjXalYHhBkKe2tvS1Q+iDrAU79rQDNqIppACF696Ud/d+t4WZPYPDfqs7k/uPvyVssuU6cypi4MmzHIoAAGMvf0b0NuYhYS3vLPe/aqYBTIkBGVRphZI1H9EkRWYF2NCus187DiODf1G1/IefPqYxJpPs4vGECCICGnVfDdG2wExtl1JtqhJeqzyFTAadEgMYu4aEpT9nbBNbS2KMEf/kdac8fFv7dPn/49J4AAuA9C955Eli7AHsc+sSSCAh5NoD0cUsErI1ITzGxxOKUnbm/O3LwTmevjf4jgn9T9/xrWYnv1njl9in1t0MAAdCOr3qw1NSiwOOiL/XKbycC5ncHBGRGTLGoeHJ5B3+xcSk+Y4L/VJ3a9xU5SdMqVnKAVpjKMbzGIYAAGMfXJnoaMn+Z03DtA4KcLTci4ItbtwhqL7bWWLi+ldpqsyDLVHZs8G9p1f/Dhw9/1PpFeC0Fk7YOyvdNAAHQt3/N9U7mL0MuZjk7ErIo0NkjD5uRQCQv7cVWWFi6Q8L1qcQ2JJ09F1gjBX9hJeeKxi9LsaQ5lrLjEEAAjONrMz2Vi5l29Jfb+JBFgc6m+RMD5cKreU0s1GldTf2Gy6r6Pecqt2QG3OfvUDS14j9EKElH52LJdZwtBJYEEABLInwuRcDcokD5E7mhnZeAJIFJ80wAacuiGApl4HtciPiTgCZrLv7++beHhZi+bc3Lya2fLaX9Q4P/XCzN+897CCwJIACWRPhckoCphXByZ0CMCHDrAgIAmuIQYL/3ISFBTQKapPxDnu3vDJPgL1M97rP1bejDfoQVo3/r3rVjHwLAji+GtMTikwJjRECoE0eYCggJ/nIbW+Bf9XvnitaCvxguv4t3HfB8wy1/nqAo9o4AAuAdCt7UIoAIGGYqQDXvL+ejZFXkX+irxeAfukj28etfQjFx3KAEEACDOt5at0NGPDn7INMB03zxFD/Or3O2s6i726mA0KC24KP62Grwl3Uhqo5OhWX0zwsCWgIIAC0xymcjUCNI7HUm5hbBvbrXvreWDVmzUbtPUv8hQU3bzqL8VUtz/mK7nP8VOC2w8XEkAgiAkbxtvK9y8bMqAiZ0xZ4aN3FQp8qtujZk3j9BX5q61U/6S/BP4HWqUBNAAKiRcUBOAlZFwPH2sSIiwCoDrd8J/n7ECP5+nCiVngACID1TaowkIAHwGDwia0p7uIiAUncItC4CSgd/me8X37R0n7+cnQT/tL9RatMRQADoeFFaSeDx61+VR7wrbupBQc4qtzhw+pw9G9CqCAi9h90x1m7dYr/jX3jUHl6tPMG/GnoaPhJAAHAqZCcQIwLkIpndwIAGSk0JtCYCJPgXvqOjucV+crpJhkR8G3DqcQgEkhFAACRDSUVbBOSP5ISKAMsBUETA9O986nfWbIAwmALGW+t/OKhk8G815S+/kaOo7Wah59bvnv32CSAA7PuoCwtjRYDlAFgqG2D5FkEZ0RYc+R9G/a2l/EUgkfbv4nLWTScQAN240n5HYkSA9M5yACyVDbDIQIL/5J7sI9qWR/0uO0LaX37JvKwQQABY8cQgdqQQAceAY5JYCSEwBZHswdYXbong7wK/PNintVG/cCycHfF1HeUgcIYA4CQoTkBEQOSfLDV5h8AcpAiB4y2DWdcHzNus9D6rGBGGrQZ+8UcJgVTJ7zTbAYEPOugDXWiQgPuTpd9/+lmo9SICzo7z76F1ZD3uOFq9FjuPryTB0koa+RjcXN9Sb5t7mt8SQGzwF5Esfwkx5o8hLW3iMwTmBBAAcxq8L0pgBBEgQGci5WlsUJD6JCUu205fzQd+8UvsYj8J/vL7eHXvk07dTLcsEGAKwIIXBrZBLnIJpgPeZh6NJvNQijUCUwbgZTKDIiqa0vPXEYe/O9TN8U9szmdi6d33Lb1JsdJfbpl14rilvmNrewQQAO35rDuL5WIX+pyAGQzz6wJmth6yAhLwpn2yRsB7nYAEy9aDpOPgAn/Lc/yuL7IVESp3acRM0cjvQNbI8IJACQIIgBKUaWOXgLs7IPLvmjclAgSKBPPjv10xIAFz+uctFnahRxY4rnFQ2SN9mJq9an1x3xJdiof7EPyXVPmcmwBrAHITpn5vAiICvnn9+9mze1/GLHwSEfBEAkxrt4zNRvZurcCB3RQ070vgt9gfsXniLXZuLnA8Bn1Zu2CyD94n6EpBSflPI/4nMaN+Eb2PX/+yUju7IJCXAAIgL19qDyAgF8N//OWzs4g7BA4PDZoCU7MLymZiIIBg2UNmIkAaPggBCfpTUHwp6wQsCpcUhI4p/03h49MGwd+HEmVyEUAA5CJLvVEE3CKoGBEwGSDZgEOaPcoYDt4lMBMsT3cLN14gxahfEBD8Gz8ROjCfNQAdOLHXLiS4Q0DQiAh4K6O1XjnRr3IEUj3SV+58Ie1fzm+0tE6ADMA6F/YaIZAoEyC9eTIt1DI7l24EN2ZsEHCj/mmV/+VGEe/dLPbzRkXBzATIAGQGTPXxBNxtgpF3CJzJQi25TYtsQLxPRqpBzpfY2/uE103Kn9v8Rjp3rPeVDIB1D2HfgYC7QyB2ceARp0wLyOKtZhcJclrkJ+BG/TEr/J2V7sl+7jNbCFgggACw4AVs8CaQcEpA2hQhwCJBb/pjFHSBP0W6X4gR/Mc4b1rsJVMALXptcJtTTQkcMYoIeCtp3sGx0v2JgJwHKdL9DqbM9zvR6vaxhYAVAmQArHgCO1QEEk8JSNtMC6g80FdhN+pPke4XMtzi19f50WtvEAC9enaQfrnRVeTzAua0EAJzGp2/d4E/VbpfcJHy7/yk6ah7CICOnDlqV0QEfP3vPw5PD0z4t9MRAh2fUDkCv4z65VyU7BQvCLRAAAHQgpewcZdAhikB16YIgcP72dPu3HdsGyOQI/ALAkb9jZ0ImHsggADgROiKgIzA5F+i2wUdm8Pz3hECDkd721yBn1F/e+cCFr8ngAB4z4J3HREQESCvhGsDpDonBHiGgNBo4JUr8EvXGfU3cAJg4kkCCICTePiyZQKZsgEOybs1Aj3/xTvX2Za2LuiLzSkX9zkGjPodCbatE0AAtO5B7N8lIEIgwyJB1+6TKcjI3xk4/Plb1gk4LOW3LvDnCPrSGwJ/eZ/SYl4CCIC8fKndCIGMiwQPPTzeP345rRNgeqCgz13QP/6dh2wt8wd8sqGl4ooEEAAV4dN0eQKZpwVchw7TA+fn54esAFMEDkuarQR9GeVPfO/nGu07S5nndyTY9kgAAdCjV+nTLoESQsBlBWSK4HgHwRViYNc1qwXWgv7Ed7Vsip2S7n/8+pcUVVEHBMwSQACYdQ2GlSBQQgjM+nFYL+DEgOxnzcCMzuLtWno/Z9CX5pnnXziBj10TQAB07V4650ugsBAQs27dUig7Rs8OuIAvLHLP6Usb8xeBf06D96MQQACM4mn66UWgghAQuw5iwE0VuLUD8kWvGQIJ9tI/N5dfOuBL2/Ii8N9w4P8xCSAAxvQ7vd4hUEkIHKySYDi9kX/y52kP4mB6eyWfW8wSuGA/9evQl2Wwnz5L14q+ZHGf3BrKc/uLYqcxYwQQAMYcgjm2CNQUAgsSt7IE8p1kCmQ7BdCXsq0pDlyQFzvcqF7eL4O97Kv1YrRfizztWiWAALDqGewyRWAuBMSwxI8YDuqrBNfjgYetm0KQfU4cHL9/JxLcZ9mKYJh/Xr6XQL7cJ5/l9ju339kwlXW7Dttp/63PNT8Q+GvSp23LBBAAlr2DbeYIiBCQl2wT/8GhpH11gXlW6eXs/eGtCIblPp/PloL7KXsJ/Kfo8B0Ezs4QAJwFEAgkYDErENiVbg4j6HfjSjpSgAACoABkmuibwDIrIL21MEXQN/X3vSPov2fBOwhoCCAANLQoC4EdAoiBHUCJviboJwJJNUMTQAAM7X46n5MAYiAtXRf0pVZu30vLltrGJIAAGNPv9LowgTUx8OrDT85effhxYUvaaY6A346vsLRNAgiANv2G1Q0TeCcGzm7uKBAh8NNHN0Jg5LUDEvBlZM8Deho+uTG9KQIIgKbchbE9EpCg51LaThzILYby6jVLIMFeXq6/rv+HnfwHAQgUIYAAKIKZRiCgI+AC419XsgRSUyvCwAV6N7IX2wn2QoEXBOoTQADU9wEWQGCXgATNeeB0wkAOnE8huM8327zrC1xwl7acbZK+dy+3z31mCwEI2CKAALDlD6yBgJrAKXGwrEzEwvzl1h7MA/f8+7X3BPY1KuyDQHsEEADt+QyLIRBMYBm8l5+DK+ZACECgOQIXzVmMwRCAAAQgAAEIRBNAAEQjpAIIQAACEIBAewQQAO35DIshAAEIQAAC0QQQANEIqQACEIAABCDQHgEEQHs+w2IIQAACEIBANAEEQDRCKoAABCAAAQi0RwAB0J7PsBgCEIAABCAQTQABEI2QCiAAAQhAAALtEUAAtOczLIYABCAAAQhEE6guAC4uLq6je0EFEIAABCAAAQioCFQXACprKQwBCEAAAhAwSsD9bQ0f8ywMfpsSABq4Pg6gDAQgAAEIQGBUAtUFwA8//HDtC3/5l8x8j6McBCAAAQhAwBIBTezLZXd1AZCrY9QLAQhAAAIQKEmgtUGqCQFwfn5+7eOkVx9+7FOMMhCAAAQgAIHiBFqLUSYEgMZLrSksTd8oCwEIQAACbRLQxCbfQW9uEs0JgH/85bPcTKgfAhCAAAQgoCKgWaT+9u3bl6rKMxU2IQAmNXSVqX9UCwEIQAACEMhO4PtP2xucmhAAmtWQMseiSbVk9zoNQAACEIDA0AS0MenFixdPLQAzIQAEhGZOhGkAC6cONkAAAhCAgBDQpP+n4mYy3pYEgDcUsgD86CAAAQhAwAIBGZC2mP4XdmYEgGYaQAwnCyAUeEEAAhCAQE0Crab/hZkZASDGaKYBJAuACBBqvCAAAQhAoAYBiUHKe/+9M90l+mNNAKjgSNpFq75KQKUNCEAAAhDom4DEnlZT/84zpgSATANosgDSiWf3vnB9YQsBCEAAAhAoQiAg9lxZWf3vAJkSAGJUyDMBnt370vWHLQQgAAEIQCArgZCYYy34CyBzAuC4GFA1FcB6gKznOpVDAAIQgMCRgAR/5by/HKmKaaVgmxMA0vEQpSRzMTeO+aQUO9qBAAQgAIFBCMicf2DwD4ppJbCaFADHjqsVk6gymZfh7oASpw5tQAACEBiDwE3w/yJk5C+A1LGsFFWzAuCYBQgCJ9kARECpU4h2IAABCPRLQEb9AQv+qMW+BwAABQ9JREFUHBBzC/+cYbI1KwDEOBEB2rsC5Dh5iQj4++ffIgRucPA/BCAAAQgoCMggUmJIwHz/oRWJXSHT2QoTo4t+EF1D5gqeP3/+4OHDhz9Ofz7xMqQpEQLy72//+u3s63//cfbNn7+HVMMxEIAABCDQOQFJ9Qc83GeVisSu1S8M7TQvAISV3BoYKgAcaxEBZ5/efEIMOCpsIQABCIxLQAK+vNyUcehof0nw4uLCfPAXm8+Xhlv9/N133z2dbHuSy75v/vwjV9Vd1uv7Q4Frl+6nU4UI+P7OxBx+a/5O0XD1r/VdSdPz/u+snN40IwDE6NwiYA6G9xCAAAQgAAENARn5a/+wnab+1GWbEgCu8zFrAlwdbCEAAQhAAAIpCMiCP5mqbin4S7+bFABiONkAocALAhCAAARqEpDg38KCvzVG/7G2s4V9P//88/VXX30lAuayBXuxEQIQgAAEuiMg8/3/1WqvmhUAAnwmAl5OHy9lHy8IQAACEIBATgIy6p/m+/9rGvn/T852ctfd7BTAEgxTAksifIYABCAAgZQEWp3r32LQjQBwHUQIOBJsIQABCEAgIYFmbu/z7XN3AsB1/CgE5GO2Zwe4tthCAAIQgEB/BHob8S891K0AmHcUMTCnwXsIQAACENgi0HvQn/d7CAEw7/CjR48u5fObN28OW3k/Ofy+bGMfNyx18IIABCAAAbsEJMA766Zr/kt5Py3oO+xr7T5+1w+2EIAABCAAAQhAAAIQgAAEIAABCEAAAhCAAAQgAAEIQAACEIAABCAAAQhAAAIQgAAEIAABCEAAAhCAAAQgAAEIQAACEIAABCAAAQhAAAIQgAAEIAABCEAAAhCAAAQgAAEIQAACEIAABCAAAQhAAAIQgAAEIAABCEAAAhCAAAQgAAEIQAACEIAABCAAAQhAAAIQgAAEIAABCEAAAhCAAAQgAAEIQAACEIAABCAAAQhAAAIQgAAEIAABCEAAAhCAAAQgAAEIQAACEIAABCAAAQhAAAIQgAAEIAABCEAAAhCAAAQgAAEIQAACEIAABCAAAQhAAAIQgAAEIAABCEAAAhCAAAQgAAEIQAACEIAABCAAAQhAAAIQgAAEIAABCEAAAhCAAAQgAAEIQAACEIAABCAAAQhAAAIQgAAEIAABCEAAAhCAAAQgAAEIQAACEIAABCAAAQhAAAIQgAAEIAABCEAAAhCAAAQgAAEIQAACEIAABCAAAQhAAAIQgAAEIAABCEAAAhCAAAQgAAEIQAACEIAABCAAAQhAAAIQgAAEIAABCEAAAhCAAAQgAAEIQAACEIAABCAAAQhAAAIQgAAEIAABCEAAAhCAAAQgAAEIQAACEIAABCAAAQhAAAIQgAAEIAABCEAAAhCAAAQgAAEIQAACEIAABCAAAQhAAAIQgAAEIAABCEAAAhCAAAQgAAEIQAACEIAABCAAAQhAAAIQgAAEIAABCEAAAhCAAAQgAAEIQAACEIAABCAAAQhAAAIQgAAEIAABCEAAAhCAAAQgAAEIQAACEIAABCAAAQhAAAIQgAAEIAABCEAAAhCAAAQgAAEIQAACEIAABCAAAQhAAAIQgAAEIAABCEAAAhCAAAQgAAEIQAACEIAABCAAAQhAAAIQgAAEIAABCEAAAhCAAAQgAAEIQAACEIAABCAAAQhAAAIQgAAEIAABCEAAAhCAAAQgAAEIQAACEIAABCAAAQhAAAIQgAAEUhD4/6IdCHT6JgtPAAAAAElFTkSuQmCC;" vertex="1" parent="1">
          <mxGeometry x="721" y="1128" width="139" height="139" as="geometry" />
        </mxCell>
        <mxCell id="rl443EiEk8wePTW852yB-15" value="FortiGate SDN" style="text;html=1;align=center;verticalAlign=middle;resizable=0;points=[];autosize=1;strokeColor=none;fillColor=none;fontSize=14;fontStyle=1" vertex="1" parent="1">
          <mxGeometry x="730.5" y="1248" width="120" height="30" as="geometry" />
        </mxCell>
        <mxCell id="rl443EiEk8wePTW852yB-16" style="edgeStyle=orthogonalEdgeStyle;rounded=0;orthogonalLoop=1;jettySize=auto;html=1;strokeWidth=6;" edge="1" parent="1" source="rl443EiEk8wePTW852yB-14" target="rl443EiEk8wePTW852yB-12">
          <mxGeometry relative="1" as="geometry">
            <mxPoint x="680" y="1340" as="sourcePoint" />
            <mxPoint x="620" y="1197" as="targetPoint" />
          </mxGeometry>
        </mxCell>
        <mxCell id="rl443EiEk8wePTW852yB-17" value="Get IP&lt;div&gt;addresses&lt;/div&gt;" style="text;html=1;align=center;verticalAlign=middle;resizable=0;points=[];autosize=1;strokeColor=none;fillColor=none;fontStyle=1" vertex="1" parent="1">
          <mxGeometry x="641" y="1155" width="80" height="40" as="geometry" />
        </mxCell>
      </root>
    </mxGraphModel>
  </diagram>
</mxfile>
